<?xml version="1.0" encoding="UTF-8"?>
<!-- Generated by Pixelmator Pro 4.0 -->
<svg width="27" height="22" viewBox="0 0 27 22" xmlns="http://www.w3.org/2000/svg">
 <clipPath id="clipPath1">
 <path d="M -3 27 L 235 27 L 235 -5 L -3 -5 Z"/>
 </clipPath>
 <g id="Group" clip-path="url(#clipPath1)">
 <path id="Path" fill="#00d6b9" stroke="none" d="M 13.9508 11.561899 L 14.0173 11.498199 C 14.061501 11.455601 14.105499 11.412701 14.1492 11.369499 L 14.2384 11.2813 L 14.5093 11.0137 L 14.8769 10.650501 L 15.192699 10.3384 L 15.4893 10.0453 L 15.7988 9.7395 L 16.082701 9.459 L 16.478001 9.068401 C 16.5532 8.994701 16.6297 8.9223 16.707399 8.8512 C 16.8508 8.7201 16.998301 8.5938 17.150101 8.472099 C 17.289101 8.3605 17.431499 8.253201 17.5772 8.1499 C 17.7813 8.005299 17.991501 7.8692 18.207899 7.7416 C 18.4195 7.616901 18.636499 7.500801 18.8589 7.393299 C 19.067699 7.2924 19.280899 7.1996 19.4984 7.1147 C 19.6196 7.067501 19.7421 7.0229 19.865801 6.980801 C 19.9277 6.959801 19.989901 6.9394 20.0525 6.919701 C 19.503901 4.760891 18.499001 2.74477 17.105499 1.00713 C 16.9723 0.841511 16.8036 0.70792 16.6119 0.61623 C 16.420099 0.524549 16.2103 0.47711 15.9977 0.477421 L 4.61416 0.477291 C 4.56922 0.477261 4.52542 0.491449 4.48903 0.51783 C 4.45265 0.54421 4.42555 0.58144 4.41161 0.624161 C 4.39768 0.666889 4.39763 0.712931 4.41146 0.75569 C 4.42529 0.79845 4.45231 0.835739 4.48863 0.8622 C 8.3746 3.71031 11.5944 7.3696 13.924999 11.586399 L 13.9508 11.561899 Z"/>
 <path id="path1" fill="#133c9a" stroke="none" d="M 23.107 13.543699 L 23.0994 13.557199 L 23.108 13.5443 L 23.1605 13.445601 C 23.142599 13.478201 23.125099 13.5112 23.107 13.543699 Z"/>
 <path id="path2" fill="#133c9a" stroke="none" d="M 23.352301 13.084801 L 23.366301 13.058399 L 23.3731 13.044901 L 23.352301 13.084801 Z"/>
 <path id="path3" fill="#133c9a" stroke="none" d="M 26.7006 7.4233 C 24.7171 6.4515 22.4452 6.243999 20.318399 6.840401 C 20.2292 6.865501 20.140499 6.891899 20.052401 6.919701 C 19.989901 6.9394 19.9277 6.959801 19.8657 6.9809 C 19.742001 7.0229 19.6196 7.067501 19.4984 7.114799 C 19.281 7.199501 19.067801 7.2924 18.8589 7.393299 C 18.6366 7.5007 18.4196 7.6168 18.207899 7.741699 C 17.991699 7.869099 17.7815 8.005199 17.5772 8.15 C 17.431499 8.253201 17.2892 8.3605 17.150101 8.472099 C 16.9984 8.5937 16.8508 8.7201 16.707399 8.851299 C 16.6297 8.9223 16.5532 8.994701 16.478001 9.068501 L 16.082701 9.459099 L 15.7988 9.739601 L 15.4893 10.045399 L 15.192699 10.338501 L 14.876801 10.6506 L 14.509199 11.0138 L 14.2384 11.281401 L 14.149099 11.3696 C 14.1054 11.412701 14.061501 11.455601 14.0173 11.498199 L 13.9508 11.562 C 13.9175 11.5938 13.884001 11.625401 13.850401 11.6569 C 13.813299 11.691601 13.775999 11.7262 13.738501 11.7607 C 12.7597 12.66 11.6705 13.431299 10.4971 14.055901 C 10.5671 14.0889 10.6374 14.1217 10.7077 14.154301 C 10.7634 14.180099 10.8191 14.2057 10.8749 14.231199 C 10.9288 14.255699 10.9828 14.280199 11.0369 14.3046 C 11.0901 14.328501 11.1435 14.352301 11.1969 14.375999 C 11.2552 14.401899 11.3137 14.427601 11.3722 14.453199 C 11.4397 14.482599 11.5072 14.5119 11.5749 14.540899 C 11.6397 14.568701 11.7046 14.5963 11.7696 14.6236 C 11.8537 14.6591 11.9381 14.694201 12.0226 14.729099 C 12.0905 14.757 12.1585 14.7847 12.2266 14.8123 C 12.3313 14.854601 12.4363 14.8964 12.5416 14.9377 C 12.6409 14.9767 12.7404 15.0152 12.8403 15.053301 C 12.9148 15.0818 12.9895 15.110001 13.0644 15.137899 C 13.193001 15.186001 13.3221 15.233299 13.451599 15.2799 C 13.517 15.3034 13.582399 15.326799 13.648001 15.349899 C 13.7395 15.3822 13.831301 15.4142 13.9233 15.445801 C 13.998899 15.471701 14.0746 15.4974 14.150499 15.5229 C 14.261299 15.560101 14.372499 15.596701 14.483999 15.6329 C 14.601 15.670799 14.718399 15.7082 14.8361 15.745001 C 14.979799 15.7899 15.123899 15.8339 15.2686 15.877001 C 15.365101 15.9058 15.461901 15.9342 15.559 15.9622 C 15.753401 16.0184 15.9487 16.073 16.144899 16.125999 C 16.215401 16.145 16.285801 16.162901 16.356199 16.179701 C 16.49 16.211599 16.6234 16.239401 16.7565 16.263 C 16.9097 16.2903 17.062201 16.312201 17.2141 16.3288 C 17.4212 16.3515 17.626801 16.364401 17.830799 16.367599 C 18.017 16.370501 18.201599 16.365499 18.384399 16.3526 C 18.558701 16.3403 18.731199 16.3209 18.9018 16.294399 C 19.136801 16.257999 19.369499 16.208 19.5987 16.144501 C 19.7523 16.1019 19.9035 16.0534 20.0525 15.9991 C 20.1903 15.948799 20.325899 15.8936 20.459299 15.8335 C 20.613001 15.7642 20.7635 15.688499 20.9109 15.6063 C 20.983299 15.565901 21.054899 15.524 21.1257 15.4806 C 21.193701 15.438801 21.2609 15.3957 21.3272 15.3512 C 21.431999 15.280899 21.5347 15.207199 21.635201 15.129999 C 21.7211 15.064199 21.805401 14.9958 21.888 14.924999 C 22.0366 14.797701 22.179501 14.6626 22.3169 14.519699 C 22.3843 14.4494 22.4503 14.377399 22.5149 14.3034 C 22.5966 14.2099 22.6759 14.1134 22.7528 14.014099 C 22.813999 13.934799 22.873699 13.8538 22.9317 13.771 C 23.095501 13.5368 23.2439 13.292299 23.376101 13.0389 L 23.5284 12.7351 L 24.9046 9.991699 L 24.9023 9.997299 C 25.3405 9.0373 25.9499 8.165001 26.7006 7.4233 Z"/>
 <path id="path4" fill="#3370ff" stroke="none" d="M 9.4363 21.5826 C 12.2248 21.583599 14.9629 20.838699 17.3666 19.4252 C 19.7703 18.0117 21.7523 15.981001 23.106899 13.543699 C 23.200701 13.375299 23.2915 13.205099 23.3792 13.0329 C 23.246201 13.288401 23.096701 13.5348 22.931601 13.7708 C 22.8736 13.853701 22.8139 13.9347 22.7526 14.013901 C 22.6758 14.113199 22.5965 14.2097 22.5147 14.303301 C 22.450199 14.377199 22.384199 14.449301 22.3167 14.519501 C 22.179501 14.662399 22.036501 14.797501 21.8878 14.9249 C 21.805201 14.995701 21.721001 15.063999 21.635099 15.1299 C 21.5345 15.207001 21.4319 15.280701 21.327101 15.351 C 21.2607 15.3955 21.193501 15.4387 21.1255 15.4804 C 21.0548 15.5238 20.9832 15.5658 20.9107 15.606199 C 20.763399 15.688299 20.6129 15.764 20.459101 15.8333 C 20.3258 15.893499 20.190201 15.9487 20.052401 15.998899 C 19.9035 16.053301 19.752199 16.1017 19.5986 16.1443 C 19.3694 16.2078 19.1367 16.2579 18.901699 16.2943 C 18.7311 16.3207 18.558701 16.340099 18.384199 16.3524 C 18.2015 16.365299 18.017 16.3703 17.8307 16.367399 C 17.626801 16.364201 17.4212 16.351299 17.2139 16.328699 C 17.062099 16.312099 16.9095 16.2901 16.7563 16.262899 C 16.623301 16.239201 16.489799 16.211399 16.356001 16.179501 C 16.2857 16.1628 16.2152 16.144899 16.144699 16.125799 C 15.9485 16.0728 15.753201 16.0182 15.5588 15.962099 C 15.4618 15.934099 15.365 15.905701 15.2684 15.876801 C 15.123699 15.8337 14.979601 15.7897 14.836 15.744801 C 14.718201 15.708 14.600901 15.6707 14.483801 15.6327 C 14.372299 15.5966 14.2612 15.5599 14.150299 15.522699 C 14.0744 15.497299 13.998699 15.4716 13.9231 15.445601 C 13.8311 15.414 13.7393 15.382099 13.6478 15.3498 C 13.582199 15.326599 13.5168 15.303301 13.451401 15.2798 C 13.321899 15.2332 13.192801 15.185801 13.064199 15.1378 C 12.9893 15.1098 12.9146 15.0816 12.8401 15.0532 C 12.7403 15.0151 12.6407 14.9765 12.5414 14.937599 C 12.4361 14.8962 12.3311 14.854401 12.2264 14.812099 C 12.1583 14.784599 12.0903 14.756901 12.0224 14.728901 C 11.9379 14.694099 11.8535 14.659 11.7694 14.623501 C 11.7043 14.5961 11.6395 14.568501 11.5747 14.5408 C 11.507 14.5117 11.4395 14.4825 11.372 14.452999 C 11.3135 14.4275 11.255 14.401699 11.1967 14.3759 C 11.1433 14.3522 11.0899 14.3284 11.0367 14.304399 C 10.9826 14.2801 10.9286 14.2556 10.8747 14.231001 C 10.8188 14.2055 10.7631 14.179899 10.7075 14.1542 C 10.6371 14.121599 10.5669 14.0888 10.4968 14.0557 C 10.4233 14.021 10.35 13.986099 10.2768 13.951 C 10.1983 13.9133 10.12 13.875299 10.0419 13.837 C 9.9753 13.8043 9.9089 13.7714 9.8425 13.7384 C 6.34942 11.9956 3.19515 9.643799 0.5279 6.7934 C 0.49868 6.762199 0.46077 6.740601 0.41908 6.731201 C 0.3774 6.721901 0.33387 6.7253 0.29415 6.741001 C 0.25444 6.7568 0.22038 6.7841 0.19639 6.819401 C 0.17241 6.854801 0.15961 6.8965 0.15967 6.939301 L 0.16533 16.9846 L 0.16533 17.799601 C 0.16467 18.032801 0.22163 18.262501 0.33115 18.4683 C 0.44067 18.6742 0.59936 18.8498 0.79311 18.9795 C 3.3538 20.6817 6.36125 21.5875 9.4361 21.5825"/>
 </g>
</svg>
