<svg width="238" height="32" viewBox="0 0 238 32" fill="none" xmlns="http://www.w3.org/2000/svg">
<g clip-path="url(#clip0_1_23)">
<path d="M84.5822 17.2203C84.5822 13.8651 82.5571 12.5336 80.3834 12.5336C79.849 12.5307 79.322 12.6585 78.8482 12.9057C78.3744 13.1529 77.9681 13.512 77.6647 13.952V8.63714C77.6647 8.59452 77.6478 8.55365 77.6176 8.52351C77.5875 8.49337 77.5466 8.47644 77.504 8.47644H74.8868C74.8657 8.47644 74.8448 8.48059 74.8253 8.48867C74.8058 8.49674 74.7881 8.50858 74.7731 8.5235C74.7582 8.53843 74.7464 8.55614 74.7383 8.57564C74.7302 8.59514 74.7261 8.61604 74.7261 8.63714V23.4067C74.7261 23.4278 74.7302 23.4487 74.7383 23.4682C74.7464 23.4877 74.7582 23.5054 74.7731 23.5203C74.7881 23.5352 74.8058 23.5471 74.8253 23.5551C74.8448 23.5632 74.8657 23.5674 74.8868 23.5673H77.504C77.5466 23.5673 77.5875 23.5504 77.6176 23.5203C77.6478 23.4902 77.6647 23.4493 77.6647 23.4067V17.1482C77.6447 16.8692 77.6802 16.589 77.7692 16.3238C77.8583 16.0587 77.999 15.8138 78.1834 15.6035C78.3677 15.3931 78.592 15.2214 78.8431 15.0984C79.0943 14.9753 79.3674 14.9033 79.6466 14.8865C80.224 14.9164 80.766 15.1737 81.1542 15.6022C81.5424 16.0306 81.7451 16.5953 81.7181 17.1729V23.4066C81.7181 23.4278 81.7222 23.4486 81.7303 23.4681C81.7384 23.4876 81.7502 23.5054 81.7651 23.5203C81.78 23.5352 81.7978 23.547 81.8173 23.5551C81.8367 23.5632 81.8576 23.5673 81.8787 23.5673H84.4249C84.446 23.5674 84.4669 23.5633 84.4864 23.5552C84.5059 23.5472 84.5236 23.5354 84.5386 23.5205C84.5535 23.5056 84.5653 23.4878 84.5734 23.4684C84.5815 23.4489 84.5856 23.428 84.5856 23.4069C84.5843 22.4196 84.593 17.2123 84.5822 17.2203Z" fill="black"/>
<path d="M52.5399 23.6577C51.8165 23.7002 51.0918 23.5963 50.4094 23.3524C49.727 23.1084 49.1007 22.7293 48.5681 22.2379C48.0696 21.6994 47.6857 21.0653 47.4398 20.374C47.1939 19.6827 47.091 18.9486 47.1375 18.2163C47.0414 16.7189 47.5137 15.2403 48.4599 14.0757C48.9264 13.5808 49.4953 13.1935 50.1268 12.9409C50.7583 12.6882 51.4372 12.5763 52.1164 12.613C52.7528 12.5752 53.3902 12.67 53.988 12.8915C54.5859 13.1129 55.1312 13.4562 55.5894 13.8995C56.0167 14.3824 56.3443 14.9451 56.5533 15.5551C56.7624 16.1651 56.8488 16.8104 56.8076 17.4539V18.8643H50.0458C50.0389 19.1846 50.0999 19.5028 50.2248 19.7978C50.3497 20.0928 50.5357 20.3581 50.7705 20.5761C51.8685 21.7028 54.2833 21.2968 55.3194 20.5226C55.3498 20.5002 55.3872 20.4895 55.4248 20.4926C55.4624 20.4956 55.4976 20.5122 55.524 20.5392L56.7815 21.8124C56.7961 21.8272 56.8077 21.8446 56.8156 21.8638C56.8235 21.883 56.8275 21.9035 56.8274 21.9242C56.8274 21.945 56.8232 21.9655 56.8153 21.9846C56.8073 22.0038 56.7956 22.0211 56.7809 22.0358C56.2183 22.5759 55.5531 22.9978 54.8247 23.2763C54.0963 23.5549 53.3194 23.6846 52.5399 23.6577ZM52.1353 14.6809C51.8683 14.6668 51.6016 14.7121 51.3542 14.8134C51.1069 14.9148 50.885 15.0697 50.7047 15.267C50.3284 15.7404 50.1199 16.3252 50.1117 16.9298H54.14C54.1671 16.3259 53.9692 15.7334 53.5847 15.267C53.3997 15.0704 53.1744 14.9162 52.9242 14.815C52.674 14.7139 52.4049 14.6681 52.1353 14.6809Z" fill="black"/>
<path d="M60.7378 11.5597C61.6348 11.5597 62.362 10.8325 62.362 9.93541C62.362 9.03836 61.6348 8.31116 60.7378 8.31116C59.8407 8.31116 59.1135 9.03836 59.1135 9.93541C59.1135 10.8325 59.8407 11.5597 60.7378 11.5597Z" fill="black"/>
<path d="M62.0974 12.7234H59.3784C59.3177 12.7234 59.2686 12.7726 59.2686 12.8332V23.4664C59.2686 23.5271 59.3177 23.5763 59.3784 23.5763H62.0974C62.158 23.5763 62.2072 23.5271 62.2072 23.4664V12.8332C62.2072 12.7726 62.158 12.7234 62.0974 12.7234Z" fill="black"/>
</g>
</svg>
