<?xml version="1.0" encoding="UTF-8"?>
<!-- Generated by Pixelmator Pro 4.0 -->
<svg width="238" height="32" viewBox="0 0 238 32" xmlns="http://www.w3.org/2000/svg">
    <clipPath id="clipPath1">
        <path d="M 0 0 L 238 0 L 238 32 L 0 32 Z"/>
    </clipPath>
    <g id="Group" clip-path="url(#clipPath1)">
        <path id="Path" fill="#00d6b9" stroke="none" d="M 16.9508 16.561899 L 17.0173 16.498199 C 17.061501 16.455601 17.105499 16.412701 17.1492 16.369499 L 17.2384 16.2813 L 17.5093 16.0137 L 17.8769 15.650501 L 18.192699 15.3384 L 18.4893 15.0453 L 18.7988 14.7395 L 19.082701 14.459 L 19.478001 14.068401 C 19.5532 13.994701 19.6297 13.9223 19.707399 13.8512 C 19.8508 13.7201 19.998301 13.5938 20.150101 13.472099 C 20.289101 13.3605 20.431499 13.253201 20.5772 13.1499 C 20.7813 13.005299 20.991501 12.8692 21.207899 12.7416 C 21.4195 12.616901 21.636499 12.500801 21.8589 12.393299 C 22.067699 12.2924 22.280899 12.1996 22.4984 12.1147 C 22.6196 12.067501 22.7421 12.0229 22.865801 11.980801 C 22.9277 11.959801 22.989901 11.9394 23.0525 11.919701 C 22.503901 9.760891 21.499001 7.74477 20.105499 6.00713 C 19.9723 5.841511 19.8036 5.70792 19.6119 5.61623 C 19.420099 5.524549 19.2103 5.47711 18.9977 5.477421 L 7.61416 5.477291 C 7.56922 5.477261 7.52542 5.491449 7.48903 5.51783 C 7.45265 5.54421 7.42555 5.58144 7.41161 5.624161 C 7.39768 5.666889 7.39763 5.712931 7.41146 5.75569 C 7.42529 5.79845 7.45231 5.835739 7.48863 5.8622 C 11.3746 8.71031 14.5944 12.3696 16.924999 16.586399 L 16.9508 16.561899 Z"/>
        <path id="path1" fill="#133c9a" stroke="none" d="M 26.107 18.543699 L 26.0994 18.557199 L 26.108 18.5443 L 26.1605 18.445601 C 26.142599 18.478201 26.125099 18.5112 26.107 18.543699 Z"/>
        <path id="path2" fill="#133c9a" stroke="none" d="M 26.352301 18.084801 L 26.366301 18.058399 L 26.3731 18.044901 L 26.352301 18.084801 Z"/>
        <path id="path3" fill="#133c9a" stroke="none" d="M 29.7006 12.4233 C 27.7171 11.4515 25.4452 11.243999 23.318399 11.840401 C 23.2292 11.865501 23.140499 11.891899 23.052401 11.919701 C 22.989901 11.9394 22.9277 11.959801 22.8657 11.9809 C 22.742001 12.0229 22.6196 12.067501 22.4984 12.114799 C 22.281 12.199501 22.067801 12.2924 21.8589 12.393299 C 21.6366 12.5007 21.4196 12.6168 21.207899 12.741699 C 20.991699 12.869099 20.7815 13.005199 20.5772 13.15 C 20.431499 13.253201 20.2892 13.3605 20.150101 13.472099 C 19.9984 13.5937 19.8508 13.7201 19.707399 13.851299 C 19.6297 13.9223 19.5532 13.994701 19.478001 14.068501 L 19.082701 14.459099 L 18.7988 14.739601 L 18.4893 15.045399 L 18.192699 15.338501 L 17.876801 15.6506 L 17.509199 16.0138 L 17.2384 16.281401 L 17.149099 16.3696 C 17.1054 16.412701 17.061501 16.455601 17.0173 16.498199 L 16.9508 16.562 C 16.9175 16.5938 16.884001 16.625401 16.850401 16.6569 C 16.813299 16.691601 16.775999 16.7262 16.738501 16.7607 C 15.7597 17.66 14.6705 18.431299 13.4971 19.055901 C 13.5671 19.0889 13.6374 19.1217 13.7077 19.154301 C 13.7634 19.180099 13.8191 19.2057 13.8749 19.231199 C 13.9288 19.255699 13.9828 19.280199 14.0369 19.3046 C 14.0901 19.328501 14.1435 19.352301 14.1969 19.375999 C 14.2552 19.401899 14.3137 19.427601 14.3722 19.453199 C 14.4397 19.482599 14.5072 19.5119 14.5749 19.540899 C 14.6397 19.568701 14.7046 19.5963 14.7696 19.6236 C 14.8537 19.6591 14.9381 19.694201 15.0226 19.729099 C 15.0905 19.757 15.1585 19.7847 15.2266 19.8123 C 15.3313 19.854601 15.4363 19.8964 15.5416 19.9377 C 15.6409 19.9767 15.7404 20.0152 15.8403 20.053301 C 15.9148 20.0818 15.9895 20.110001 16.0644 20.137899 C 16.193001 20.186001 16.3221 20.233299 16.451599 20.2799 C 16.517 20.3034 16.582399 20.326799 16.648001 20.349899 C 16.7395 20.3822 16.831301 20.4142 16.9233 20.445801 C 16.998899 20.471701 17.0746 20.4974 17.150499 20.5229 C 17.261299 20.560101 17.372499 20.596701 17.483999 20.6329 C 17.601 20.670799 17.718399 20.7082 17.8361 20.745001 C 17.979799 20.7899 18.123899 20.8339 18.2686 20.877001 C 18.365101 20.9058 18.461901 20.9342 18.559 20.9622 C 18.753401 21.0184 18.9487 21.073 19.144899 21.125999 C 19.215401 21.145 19.285801 21.162901 19.356199 21.179701 C 19.49 21.211599 19.6234 21.239401 19.7565 21.263 C 19.9097 21.2903 20.062201 21.312201 20.2141 21.3288 C 20.4212 21.3515 20.626801 21.364401 20.830799 21.367599 C 21.017 21.370501 21.201599 21.365499 21.384399 21.3526 C 21.558701 21.3403 21.731199 21.3209 21.9018 21.294399 C 22.136801 21.257999 22.369499 21.208 22.5987 21.144501 C 22.7523 21.1019 22.9035 21.0534 23.0525 20.9991 C 23.1903 20.948799 23.325899 20.8936 23.459299 20.8335 C 23.613001 20.7642 23.7635 20.688499 23.9109 20.6063 C 23.983299 20.565901 24.054899 20.524 24.1257 20.4806 C 24.193701 20.438801 24.2609 20.3957 24.3272 20.3512 C 24.431999 20.280899 24.5347 20.207199 24.635201 20.129999 C 24.7211 20.064199 24.805401 19.9958 24.888 19.924999 C 25.0366 19.797701 25.179501 19.6626 25.3169 19.519699 C 25.3843 19.4494 25.4503 19.377399 25.5149 19.3034 C 25.5966 19.2099 25.6759 19.1134 25.7528 19.014099 C 25.813999 18.934799 25.873699 18.8538 25.9317 18.771 C 26.095501 18.5368 26.2439 18.292299 26.376101 18.0389 L 26.5284 17.7351 L 27.9046 14.991699 L 27.9023 14.997299 C 28.3405 14.0373 28.9499 13.165001 29.7006 12.4233 Z"/>
        <path id="path4" fill="#3370ff" stroke="none" d="M 12.4363 26.5826 C 15.2248 26.583599 17.9629 25.838699 20.3666 24.4252 C 22.7703 23.0117 24.7523 20.981001 26.106899 18.543699 C 26.200701 18.375299 26.2915 18.205099 26.3792 18.0329 C 26.246201 18.288401 26.096701 18.5348 25.931601 18.7708 C 25.8736 18.853701 25.8139 18.9347 25.7526 19.013901 C 25.6758 19.113199 25.5965 19.2097 25.5147 19.303301 C 25.450199 19.377199 25.384199 19.449301 25.3167 19.519501 C 25.179501 19.662399 25.036501 19.797501 24.8878 19.9249 C 24.805201 19.995701 24.721001 20.063999 24.635099 20.1299 C 24.5345 20.207001 24.4319 20.280701 24.327101 20.351 C 24.2607 20.3955 24.193501 20.4387 24.1255 20.4804 C 24.0548 20.5238 23.9832 20.5658 23.9107 20.606199 C 23.763399 20.688299 23.6129 20.764 23.459101 20.8333 C 23.3258 20.893499 23.190201 20.9487 23.052401 20.998899 C 22.9035 21.053301 22.752199 21.1017 22.5986 21.1443 C 22.3694 21.2078 22.1367 21.2579 21.901699 21.2943 C 21.7311 21.3207 21.558701 21.340099 21.384199 21.3524 C 21.2015 21.365299 21.017 21.3703 20.8307 21.367399 C 20.626801 21.364201 20.4212 21.351299 20.2139 21.328699 C 20.062099 21.312099 19.9095 21.2901 19.7563 21.262899 C 19.623301 21.239201 19.489799 21.211399 19.356001 21.179501 C 19.2857 21.1628 19.2152 21.144899 19.144699 21.125799 C 18.9485 21.0728 18.753201 21.0182 18.5588 20.962099 C 18.4618 20.934099 18.365 20.905701 18.2684 20.876801 C 18.123699 20.8337 17.979601 20.7897 17.836 20.744801 C 17.718201 20.708 17.600901 20.6707 17.483801 20.6327 C 17.372299 20.5966 17.2612 20.5599 17.150299 20.522699 C 17.0744 20.497299 16.998699 20.4716 16.9231 20.445601 C 16.8311 20.414 16.7393 20.382099 16.6478 20.3498 C 16.582199 20.326599 16.5168 20.303301 16.451401 20.2798 C 16.321899 20.2332 16.192801 20.185801 16.064199 20.1378 C 15.9893 20.1098 15.9146 20.0816 15.8401 20.0532 C 15.7403 20.0151 15.6407 19.9765 15.5414 19.937599 C 15.4361 19.8962 15.3311 19.854401 15.2264 19.812099 C 15.1583 19.784599 15.0903 19.756901 15.0224 19.728901 C 14.9379 19.694099 14.8535 19.659 14.7694 19.623501 C 14.7043 19.5961 14.6395 19.568501 14.5747 19.5408 C 14.507 19.5117 14.4395 19.4825 14.372 19.452999 C 14.3135 19.4275 14.255 19.401699 14.1967 19.3759 C 14.1433 19.3522 14.0899 19.3284 14.0367 19.304399 C 13.9826 19.2801 13.9286 19.2556 13.8747 19.231001 C 13.8188 19.2055 13.7631 19.179899 13.7075 19.1542 C 13.6371 19.121599 13.5669 19.0888 13.4968 19.0557 C 13.4233 19.021 13.35 18.986099 13.2768 18.951 C 13.1983 18.9133 13.12 18.875299 13.0419 18.837 C 12.9753 18.8043 12.9089 18.7714 12.8425 18.7384 C 9.34942 16.9956 6.19515 14.643799 3.5279 11.7934 C 3.49868 11.762199 3.46077 11.740601 3.41908 11.731201 C 3.3774 11.721901 3.33387 11.7253 3.29415 11.741001 C 3.25444 11.7568 3.22038 11.7841 3.19639 11.819401 C 3.17241 11.854801 3.15961 11.8965 3.15967 11.939301 L 3.16533 21.9846 L 3.16533 22.799601 C 3.16467 23.032801 3.22163 23.262501 3.33115 23.4683 C 3.44067 23.6742 3.59936 23.8498 3.79311 23.9795 C 6.3538 25.6817 9.36125 26.5875 12.4361 26.5825"/>
    </g>
</svg>
